M48
; DRILL file {KiCad 7.0.2-0} date 2023 July 19, Wednesday 20:31:17
; FORMAT={-:-/ absolute / inch / decimal}
; #@! TF.CreationDate,2023-07-19T20:31:17+01:00
; #@! TF.GenerationSoftware,Kicad,Pcbnew,7.0.2-0
; #@! TF.FileFunction,Plated,1,2,PTH
FMAT,2
INCH
; #@! TA.AperFunction,Plated,PTH,ViaDrill
T1C0.0150
; #@! TA.AperFunction,Plated,PTH,ComponentDrill
T2C0.0236
; #@! TA.AperFunction,Plated,PTH,ComponentDrill
T3C0.0315
; #@! TA.AperFunction,Plated,PTH,ComponentDrill
T4C0.0354
; #@! TA.AperFunction,Plated,PTH,ComponentDrill
T5C0.0394
; #@! TA.AperFunction,Plated,PTH,ComponentDrill
T6C0.0433
; #@! TA.AperFunction,Plated,PTH,ComponentDrill
T7C0.1260
%
G90
G05
T1
X5.73Y-3.62
T3
X4.0157Y-3.852
X4.0157Y-4.252
X4.03Y-3.15
X4.03Y-3.55
X4.04Y-4.42
X4.14Y-4.42
X4.15Y-3.15
X4.15Y-3.55
X4.1958Y-3.74
X4.1958Y-3.84
X4.1958Y-3.94
X4.24Y-4.42
X4.3898Y-3.6976
X4.3898Y-4.0976
X4.39Y-4.24
X4.39Y-4.34
X4.39Y-4.44
X4.4685Y-4.6063
X4.4685Y-5.0063
X4.5669Y-4.0157
X4.5669Y-4.3157
X4.5803Y-4.4685
X4.5803Y-5.2559
X4.9803Y-4.4685
X4.9803Y-5.2559
X5.37Y-3.35
X5.37Y-3.75
X5.3796Y-3.8896
X5.3796Y-3.9896
X5.3796Y-4.0896
X5.3796Y-4.1896
X5.4516Y-4.33
X5.54Y-4.73
X5.54Y-5.13
X5.55Y-5.23
X5.55Y-5.4269
X5.5512Y-5.7283
X5.5512Y-6.1283
X5.6484Y-4.33
X5.66Y-4.73
X5.66Y-5.13
X5.6796Y-3.8896
X5.6796Y-3.9896
X5.6796Y-4.0896
X5.6796Y-4.1896
X5.7087Y-2.37
X5.71Y-2.54
X5.71Y-2.64
X5.71Y-2.74
X5.71Y-5.23
X5.71Y-5.53
X5.74Y-3.52
X5.74Y-3.7169
X5.78Y-4.6
X5.78Y-4.73
X5.78Y-5.13
X5.7874Y-2.37
X5.81Y-5.23
X5.81Y-5.53
X5.82Y-3.94
X5.82Y-4.34
X5.86Y-3.0
X5.86Y-3.4
X5.88Y-3.52
X5.88Y-3.82
X5.9Y-4.73
X5.9Y-5.13
X5.91Y-5.23
X5.91Y-5.53
X5.94Y-4.2216
X5.94Y-4.4184
X5.9413Y-2.37
X5.9769Y-4.6
X5.98Y-3.0
X5.98Y-3.4
X5.98Y-3.52
X5.98Y-3.82
X5.98Y-5.7087
X5.98Y-6.1087
X6.01Y-5.23
X6.01Y-5.53
X6.02Y-2.12
X6.02Y-2.37
X6.03Y-2.62
X6.04Y-4.74
X6.04Y-4.9369
X6.06Y-3.95
X6.06Y-4.1469
X6.08Y-3.52
X6.08Y-3.82
X6.1Y-3.0
X6.1Y-3.4
X6.12Y-2.12
X6.17Y-5.3331
X6.17Y-5.53
X6.18Y-3.52
X6.18Y-3.82
X6.18Y-3.94
X6.18Y-4.34
X6.2008Y-2.2835
X6.2008Y-2.4803
X6.22Y-2.12
X6.22Y-3.0
X6.22Y-3.4
X6.22Y-4.44
X6.22Y-4.84
X6.2269Y-2.62
T4
X4.1427Y-4.1142
X4.2427Y-4.1142
X4.4577Y-5.5512
X4.4581Y-5.4134
X4.5577Y-5.5512
X4.5581Y-5.4134
T5
X4.0945Y-3.0315
X4.1929Y-3.0315
X4.2913Y-3.0315
X4.2913Y-3.2677
X4.2913Y-3.3677
X4.2913Y-3.4677
X4.2913Y-3.5677
X4.5079Y-5.7283
X4.5079Y-5.8283
X4.5079Y-5.9283
X4.5079Y-6.0283
X4.5079Y-6.1283
X4.685Y-2.7953
X4.7244Y-2.5591
X4.7244Y-3.5039
X4.785Y-2.7953
X4.8228Y-2.5591
X4.8228Y-3.5039
X4.885Y-2.7953
X4.9213Y-2.5591
X4.9213Y-3.5039
X4.985Y-2.7953
X5.3528Y-2.5394
X5.3528Y-2.6394
X5.3528Y-2.7394
X5.3528Y-2.8394
X5.3528Y-2.9394
X5.39Y-4.48
X5.39Y-4.58
X5.4528Y-2.5394
X5.4528Y-2.6394
X5.4528Y-2.7394
X5.4528Y-2.8394
X5.4528Y-2.9394
X5.49Y-4.48
X5.49Y-4.58
X5.5118Y-3.2677
X5.5118Y-3.3677
X5.5118Y-3.4677
X5.5118Y-3.5677
X5.59Y-4.48
X5.59Y-4.58
X5.7283Y-5.7283
X5.7283Y-5.8283
X5.7283Y-5.9283
X5.7283Y-6.0283
X5.7283Y-6.1283
X5.9055Y-2.7953
X6.0055Y-2.7953
X6.1055Y-2.7953
X6.2055Y-2.7953
T6
X5.49Y-2.06
X5.49Y-2.19
X5.89Y-2.06
X5.89Y-2.19
T7
X4.0748Y-2.1063
X4.0748Y-5.374
X5.2953Y-2.1063
X5.2953Y-5.374
T2
G00X4.1732Y-4.6071
M15
G01X4.2126Y-4.6071
M16
G05
G00X4.1732Y-4.7291
M15
G01X4.2126Y-4.7291
M16
G05
G00X4.1732Y-5.0559
M15
G01X4.2126Y-5.0559
M16
G05
G00X4.2126Y-5.6921
M15
G01X4.1732Y-5.6921
M16
G05
G00X4.2126Y-6.0189
M15
G01X4.1732Y-6.0189
M16
G05
G00X4.2126Y-6.1409
M15
G01X4.1732Y-6.1409
M16
G05
G00X4.8031Y-3.8591
M15
G01X4.8425Y-3.8591
M16
G05
G00X4.8031Y-3.9811
M15
G01X4.8425Y-3.9811
M16
G05
G00X4.8031Y-4.3079
M15
G01X4.8425Y-4.3079
M16
G05
G00X4.8031Y-4.6071
M15
G01X4.8425Y-4.6071
M16
G05
G00X4.8031Y-4.7291
M15
G01X4.8425Y-4.7291
M16
G05
G00X4.8031Y-5.0559
M15
G01X4.8425Y-5.0559
M16
G05
G00X4.8425Y-5.6921
M15
G01X4.8031Y-5.6921
M16
G05
G00X4.8425Y-6.0189
M15
G01X4.8031Y-6.0189
M16
G05
G00X4.8425Y-6.1409
M15
G01X4.8031Y-6.1409
M16
G05
T6
G00X4.0039Y-2.7224
M15
G01X4.0039Y-2.75
M16
G05
G00X4.3819Y-2.7224
M15
G01X4.3819Y-2.75
M16
G05
G00X4.6339Y-2.25
M15
G01X4.6339Y-2.2776
M16
G05
G00X4.6339Y-3.1949
M15
G01X4.6339Y-3.2224
M16
G05
G00X5.0118Y-2.25
M15
G01X5.0118Y-2.2776
M16
G05
G00X5.0118Y-3.1949
M15
G01X5.0118Y-3.2224
M16
G05
T0
M30
