M48
; DRILL file {KiCad 7.0.2-0} date 2023 July 19, Wednesday 20:31:17
; FORMAT={-:-/ absolute / inch / decimal}
; #@! TF.CreationDate,2023-07-19T20:31:17+01:00
; #@! TF.GenerationSoftware,Kicad,Pcbnew,7.0.2-0
; #@! TF.FileFunction,NonPlated,1,2,NPTH
FMAT,2
INCH
; #@! TA.AperFunction,NonPlated,NPTH,ComponentDrill
T1C0.0197
%
G90
G05
T1
X5.0886Y-2.5295
X5.0886Y-2.5591
X5.0886Y-2.5886
X5.0886Y-3.5138
X5.0886Y-3.5433
X5.0886Y-3.5728
X5.0886Y-4.3012
X5.0886Y-4.3307
X5.0886Y-4.3602
X5.0886Y-5.0886
X5.0886Y-5.1181
X5.0886Y-5.1476
X5.0886Y-5.876
X5.0886Y-5.9055
X5.0886Y-5.935
X5.1476Y-2.5295
X5.1476Y-2.5591
X5.1476Y-2.5886
X5.1476Y-3.5138
X5.1476Y-3.5433
X5.1476Y-3.5728
X5.1476Y-4.3012
X5.1476Y-4.3307
X5.1476Y-4.3602
X5.1476Y-5.0886
X5.1476Y-5.1181
X5.1476Y-5.1476
X5.1476Y-5.876
X5.1476Y-5.9055
X5.1476Y-5.935
T0
M30
