%TF.GenerationSoftware,KiCad,Pcbnew,7.0.2-0*%
%TF.CreationDate,2023-07-19T20:31:15+01:00*%
%TF.ProjectId,attiny-modulator,61747469-6e79-42d6-9d6f-64756c61746f,rev02*%
%TF.SameCoordinates,Original*%
%TF.FileFunction,Soldermask,Bot*%
%TF.FilePolarity,Negative*%
%FSLAX46Y46*%
G04 Gerber Fmt 4.6, Leading zero omitted, Abs format (unit mm)*
G04 Created by KiCad (PCBNEW 7.0.2-0) date 2023-07-19 20:31:15*
%MOMM*%
%LPD*%
G01*
G04 APERTURE LIST*
G04 Aperture macros list*
%AMRoundRect*
0 Rectangle with rounded corners*
0 $1 Rounding radius*
0 $2 $3 $4 $5 $6 $7 $8 $9 X,Y pos of 4 corners*
0 Add a 4 corners polygon primitive as box body*
4,1,4,$2,$3,$4,$5,$6,$7,$8,$9,$2,$3,0*
0 Add four circle primitives for the rounded corners*
1,1,$1+$1,$2,$3*
1,1,$1+$1,$4,$5*
1,1,$1+$1,$6,$7*
1,1,$1+$1,$8,$9*
0 Add four rect primitives between the rounded corners*
20,1,$1+$1,$2,$3,$4,$5,0*
20,1,$1+$1,$4,$5,$6,$7,0*
20,1,$1+$1,$6,$7,$8,$9,0*
20,1,$1+$1,$8,$9,$2,$3,0*%
G04 Aperture macros list end*
%ADD10C,1.600000*%
%ADD11O,1.600000X1.600000*%
%ADD12C,0.500000*%
%ADD13R,1.600000X1.600000*%
%ADD14R,1.700000X1.700000*%
%ADD15O,1.700000X1.700000*%
%ADD16C,5.600000*%
%ADD17R,1.500000X1.500000*%
%ADD18C,1.500000*%
%ADD19R,2.200000X2.200000*%
%ADD20O,2.200000X2.200000*%
%ADD21RoundRect,0.250000X-0.600000X-0.600000X0.600000X-0.600000X0.600000X0.600000X-0.600000X0.600000X0*%
%ADD22C,1.700000*%
%ADD23O,3.100000X2.300000*%
%ADD24RoundRect,0.650000X0.650000X0.650000X-0.650000X0.650000X-0.650000X-0.650000X0.650000X-0.650000X0*%
%ADD25R,1.800000X1.800000*%
%ADD26C,1.800000*%
%ADD27O,2.200000X2.900000*%
%ADD28RoundRect,0.650000X-0.650000X-0.650000X0.650000X-0.650000X0.650000X0.650000X-0.650000X0.650000X0*%
G04 APERTURE END LIST*
D10*
%TO.C,R19*%
X113500000Y-117000000D03*
D11*
X113500000Y-127160000D03*
%TD*%
D10*
%TO.C,C7*%
X156718000Y-140462000D03*
X156718000Y-135462000D03*
%TD*%
%TO.C,R23*%
X102362000Y-90170000D03*
D11*
X102362000Y-80010000D03*
%TD*%
D10*
%TO.C,R4*%
X157988000Y-86360000D03*
D11*
X157988000Y-76200000D03*
%TD*%
D10*
%TO.C,R12*%
X146812000Y-130302000D03*
D11*
X146812000Y-120142000D03*
%TD*%
D10*
%TO.C,R7*%
X147828000Y-110236000D03*
D11*
X147828000Y-100076000D03*
%TD*%
D10*
%TO.C,R2*%
X136398000Y-95250000D03*
D11*
X136398000Y-85090000D03*
%TD*%
D10*
%TO.C,R9*%
X149860000Y-120142000D03*
D11*
X149860000Y-130302000D03*
%TD*%
D10*
%TO.C,R17*%
X126500000Y-133500000D03*
D11*
X116340000Y-133500000D03*
%TD*%
D12*
%TO.C,mouse-bite-2mm-slot*%
X129250000Y-90750000D03*
X130750000Y-90750000D03*
X129250000Y-90000000D03*
X130750000Y-90000000D03*
X129250000Y-89250000D03*
X130750000Y-89250000D03*
%TD*%
D10*
%TO.C,C12*%
X151812000Y-116840000D03*
X146812000Y-116840000D03*
%TD*%
D13*
%TO.C,D6*%
X116000000Y-109620000D03*
D11*
X116000000Y-102000000D03*
%TD*%
D12*
%TO.C,mouse-bite-2mm-slot*%
X129250000Y-110750000D03*
X130750000Y-110750000D03*
X129250000Y-110000000D03*
X130750000Y-110000000D03*
X129250000Y-109250000D03*
X130750000Y-109250000D03*
%TD*%
D10*
%TO.C,R20*%
X102000000Y-97840000D03*
D11*
X102000000Y-108000000D03*
%TD*%
D10*
%TO.C,C6*%
X145796000Y-89408000D03*
X145796000Y-94408000D03*
%TD*%
D13*
%TO.C,U2*%
X149352000Y-97028000D03*
D11*
X151892000Y-97028000D03*
X154432000Y-97028000D03*
X156972000Y-97028000D03*
X156972000Y-89408000D03*
X154432000Y-89408000D03*
X151892000Y-89408000D03*
X149352000Y-89408000D03*
%TD*%
D14*
%TO.C,J10*%
X119000000Y-71000000D03*
D15*
X121540000Y-71000000D03*
X124080000Y-71000000D03*
X126620000Y-71000000D03*
%TD*%
D16*
%TO.C,H3*%
X134500000Y-136500000D03*
%TD*%
D17*
%TO.C,Q3*%
X111506000Y-107696000D03*
D18*
X111506000Y-110236000D03*
X111506000Y-112776000D03*
%TD*%
D10*
%TO.C,C11*%
X153416000Y-125396000D03*
X153416000Y-120396000D03*
%TD*%
D16*
%TO.C,H2*%
X103500000Y-53500000D03*
%TD*%
%TO.C,H1*%
X103500000Y-136500000D03*
%TD*%
D19*
%TO.C,D2*%
X139446000Y-52324000D03*
D20*
X149606000Y-52324000D03*
%TD*%
D13*
%TO.C,C3*%
X145000000Y-60198000D03*
D10*
X147000000Y-60198000D03*
%TD*%
D13*
%TO.C,U6*%
X152654000Y-132842000D03*
D11*
X150114000Y-132842000D03*
X147574000Y-132842000D03*
X145034000Y-132842000D03*
X145034000Y-140462000D03*
X147574000Y-140462000D03*
X150114000Y-140462000D03*
X152654000Y-140462000D03*
%TD*%
D12*
%TO.C,mouse-bite-2mm-slot*%
X129250000Y-150750000D03*
X130750000Y-150750000D03*
X129250000Y-150000000D03*
X130750000Y-150000000D03*
X129250000Y-149250000D03*
X130750000Y-149250000D03*
%TD*%
D13*
%TO.C,C5*%
X150908000Y-60198000D03*
D10*
X152908000Y-60198000D03*
%TD*%
%TO.C,R24*%
X157988000Y-112776000D03*
D11*
X157988000Y-122936000D03*
%TD*%
D10*
%TO.C,R18*%
X116340000Y-113500000D03*
D11*
X126500000Y-113500000D03*
%TD*%
D10*
%TO.C,C2*%
X157500000Y-63000000D03*
X157500000Y-58000000D03*
%TD*%
D17*
%TO.C,Q1*%
X102616000Y-112268000D03*
D18*
X105156000Y-112268000D03*
X107696000Y-112268000D03*
%TD*%
D10*
%TO.C,R5*%
X156972000Y-110236000D03*
D11*
X156972000Y-100076000D03*
%TD*%
D14*
%TO.C,J13*%
X114500000Y-145500000D03*
D15*
X114500000Y-148040000D03*
X114500000Y-150580000D03*
X114500000Y-153120000D03*
X114500000Y-155660000D03*
%TD*%
D10*
%TO.C,C10*%
X138470000Y-109982000D03*
X143470000Y-109982000D03*
%TD*%
D14*
%TO.C,J7*%
X109000000Y-83000000D03*
D15*
X109000000Y-85540000D03*
X109000000Y-88080000D03*
X109000000Y-90620000D03*
%TD*%
D17*
%TO.C,Q2*%
X106574000Y-94996000D03*
D18*
X106574000Y-97536000D03*
X106574000Y-100076000D03*
%TD*%
D12*
%TO.C,mouse-bite-2mm-slot*%
X129250000Y-130750000D03*
X130750000Y-130750000D03*
X129250000Y-130000000D03*
X130750000Y-130000000D03*
X129250000Y-129250000D03*
X130750000Y-129250000D03*
%TD*%
D10*
%TO.C,C9*%
X150876000Y-112228000D03*
X150876000Y-107228000D03*
%TD*%
D16*
%TO.C,H4*%
X134500000Y-53500000D03*
%TD*%
D14*
%TO.C,J6*%
X136906000Y-116332000D03*
D15*
X136906000Y-113792000D03*
X139446000Y-116332000D03*
X139446000Y-113792000D03*
X141986000Y-116332000D03*
X141986000Y-113792000D03*
%TD*%
D21*
%TO.C,J1*%
X135960000Y-64500000D03*
D22*
X138500000Y-64500000D03*
X135960000Y-67040000D03*
X138500000Y-67040000D03*
X135960000Y-69580000D03*
X138500000Y-69580000D03*
X135960000Y-72120000D03*
X138500000Y-72120000D03*
X135960000Y-74660000D03*
X138500000Y-74660000D03*
%TD*%
D10*
%TO.C,C1*%
X153162000Y-66548000D03*
X158162000Y-66548000D03*
%TD*%
%TO.C,R10*%
X143764000Y-130302000D03*
D11*
X143764000Y-120142000D03*
%TD*%
D10*
%TO.C,R21*%
X105410000Y-80010000D03*
D11*
X105410000Y-90170000D03*
%TD*%
D10*
%TO.C,R22*%
X111500000Y-104080000D03*
D11*
X111500000Y-93920000D03*
%TD*%
D19*
%TO.C,D1*%
X149606000Y-55626000D03*
D20*
X139446000Y-55626000D03*
%TD*%
D13*
%TO.C,U1*%
X144262000Y-106416000D03*
D11*
X144262000Y-103876000D03*
X144262000Y-101336000D03*
X144262000Y-98796000D03*
X136642000Y-98796000D03*
X136642000Y-101336000D03*
X136642000Y-103876000D03*
X136642000Y-106416000D03*
%TD*%
D10*
%TO.C,C4*%
X153924000Y-100330000D03*
X153924000Y-105330000D03*
%TD*%
D17*
%TO.C,U5*%
X152908000Y-53848000D03*
D18*
X155448000Y-53848000D03*
X157988000Y-53848000D03*
%TD*%
D10*
%TO.C,C8*%
X140970000Y-137842000D03*
X140970000Y-132842000D03*
%TD*%
D17*
%TO.C,U4*%
X145034000Y-69596000D03*
D18*
X145034000Y-67056000D03*
X145034000Y-64516000D03*
%TD*%
D10*
%TO.C,R25*%
X154940000Y-86360000D03*
D11*
X154940000Y-76200000D03*
%TD*%
D10*
%TO.C,R6*%
X141000000Y-155660000D03*
D11*
X141000000Y-145500000D03*
%TD*%
D10*
%TO.C,R26*%
X151892000Y-86360000D03*
D11*
X151892000Y-76200000D03*
%TD*%
D10*
%TO.C,R11*%
X140716000Y-120142000D03*
D11*
X140716000Y-130302000D03*
%TD*%
D10*
%TO.C,R3*%
X148844000Y-76200000D03*
D11*
X148844000Y-86360000D03*
%TD*%
D12*
%TO.C,mouse-bite-2mm-slot*%
X129250000Y-65750000D03*
X130750000Y-65750000D03*
X129250000Y-65000000D03*
X130750000Y-65000000D03*
X129250000Y-64250000D03*
X130750000Y-64250000D03*
%TD*%
D10*
%TO.C,R1*%
X151892000Y-145000000D03*
D11*
X151892000Y-155160000D03*
%TD*%
D23*
%TO.C,J11*%
X122500000Y-155980000D03*
D24*
X122500000Y-144580000D03*
X122500000Y-152880000D03*
%TD*%
D25*
%TO.C,D5*%
X105225000Y-104500000D03*
D26*
X107765000Y-104500000D03*
%TD*%
D27*
%TO.C,RV2*%
X111300000Y-69500000D03*
X101700000Y-69500000D03*
D25*
X109000000Y-77000000D03*
D26*
X106500000Y-77000000D03*
X104000000Y-77000000D03*
%TD*%
D23*
%TO.C,J5*%
X122500000Y-117020000D03*
D28*
X122500000Y-128420000D03*
X122500000Y-120120000D03*
%TD*%
D14*
%TO.C,J9*%
X150000000Y-71000000D03*
D15*
X152540000Y-71000000D03*
X155080000Y-71000000D03*
X157620000Y-71000000D03*
%TD*%
D23*
%TO.C,J4*%
X106500000Y-155980000D03*
D24*
X106500000Y-144580000D03*
X106500000Y-152880000D03*
%TD*%
D27*
%TO.C,RV3*%
X127300000Y-81500000D03*
X117700000Y-81500000D03*
D25*
X125000000Y-89000000D03*
D26*
X122500000Y-89000000D03*
X120000000Y-89000000D03*
%TD*%
D25*
%TO.C,D3*%
X115775000Y-137500000D03*
D26*
X113235000Y-137500000D03*
%TD*%
D27*
%TO.C,RV1*%
X127300000Y-57500000D03*
X117700000Y-57500000D03*
D25*
X125000000Y-65000000D03*
D26*
X122500000Y-65000000D03*
X120000000Y-65000000D03*
%TD*%
D23*
%TO.C,J3*%
X122500000Y-98020000D03*
D28*
X122500000Y-109420000D03*
X122500000Y-101120000D03*
%TD*%
D25*
%TO.C,D4*%
X113225000Y-141000000D03*
D26*
X115765000Y-141000000D03*
%TD*%
D14*
%TO.C,J12*%
X145500000Y-145500000D03*
D15*
X145500000Y-148040000D03*
X145500000Y-150580000D03*
X145500000Y-153120000D03*
X145500000Y-155660000D03*
%TD*%
D23*
%TO.C,J2*%
X106500000Y-117020000D03*
D28*
X106500000Y-128420000D03*
X106500000Y-120120000D03*
%TD*%
D14*
%TO.C,J8*%
X140000000Y-83000000D03*
D15*
X140000000Y-85540000D03*
X140000000Y-88080000D03*
X140000000Y-90620000D03*
%TD*%
M02*
