%TF.GenerationSoftware,KiCad,Pcbnew,7.0.2-0*%
%TF.CreationDate,2023-07-19T20:31:15+01:00*%
%TF.ProjectId,attiny-modulator,61747469-6e79-42d6-9d6f-64756c61746f,rev02*%
%TF.SameCoordinates,Original*%
%TF.FileFunction,Profile,NP*%
%FSLAX46Y46*%
G04 Gerber Fmt 4.6, Leading zero omitted, Abs format (unit mm)*
G04 Created by KiCad (PCBNEW 7.0.2-0) date 2023-07-19 20:31:15*
%MOMM*%
%LPD*%
G01*
G04 APERTURE LIST*
%TA.AperFunction,Profile*%
%ADD10C,0.050000*%
%TD*%
G04 APERTURE END LIST*
D10*
X131000000Y-50000000D02*
X160000000Y-50000000D01*
X129000000Y-152000000D02*
X129000000Y-158000000D01*
X100000000Y-50000000D02*
X129000000Y-50000000D01*
X100000000Y-158000000D02*
X100000000Y-50000000D01*
X160000000Y-50000000D02*
X160000000Y-158000000D01*
X129000000Y-132000000D02*
X129000000Y-148000000D01*
X129000000Y-158000000D02*
X100000000Y-158000000D01*
X131000000Y-112000000D02*
X131000000Y-128000000D01*
X131000000Y-50000000D02*
X131000000Y-63000000D01*
X131000000Y-67000000D02*
X131000000Y-88000000D01*
X129000000Y-67000000D02*
X129000000Y-88000000D01*
X131000000Y-132000000D02*
X131000000Y-148000000D01*
X160000000Y-158000000D02*
X131000000Y-158000000D01*
X129000000Y-112000000D02*
X129000000Y-128000000D01*
X129000000Y-92000000D02*
X129000000Y-108000000D01*
X131000000Y-152000000D02*
X131000000Y-158000000D01*
X131000000Y-92000000D02*
X131000000Y-108000000D01*
X129000000Y-50000000D02*
X129000000Y-63000000D01*
%TO.C,mouse-bite-2mm-slot*%
X131000000Y-92000000D02*
G75*
G03*
X129000000Y-92000000I-1000000J0D01*
G01*
X129000000Y-88000000D02*
G75*
G03*
X131000000Y-88000000I1000000J0D01*
G01*
X131000000Y-112000000D02*
G75*
G03*
X129000000Y-112000000I-1000000J0D01*
G01*
X129000000Y-108000000D02*
G75*
G03*
X131000000Y-108000000I1000000J0D01*
G01*
X131000000Y-152000000D02*
G75*
G03*
X129000000Y-152000000I-1000000J0D01*
G01*
X129000000Y-148000000D02*
G75*
G03*
X131000000Y-148000000I1000000J0D01*
G01*
X131000000Y-132000000D02*
G75*
G03*
X129000000Y-132000000I-1000000J0D01*
G01*
X129000000Y-128000000D02*
G75*
G03*
X131000000Y-128000000I1000000J0D01*
G01*
X131000000Y-67000000D02*
G75*
G03*
X129000000Y-67000000I-1000000J0D01*
G01*
X129000000Y-63000000D02*
G75*
G03*
X131000000Y-63000000I1000000J0D01*
G01*
%TD*%
M02*
